<svg width="1244" height="258" viewBox="0 0 1244 258" fill="none" xmlns="http://www.w3.org/2000/svg">
<path d="M112.4 260.6C90.2333 260.6 70.75 255.467 53.95 245.2C37.15 234.7 24.0833 219.767 14.75 200.4C5.41667 181.033 0.750001 157.933 0.750001 131.1C0.750001 104.267 5.41667 81.1667 14.75 61.8C24.0833 42.2 37.15 27.15 53.95 16.65C70.75 6.14999 90.2333 0.899996 112.4 0.899996C142.5 0.899996 165.833 8.48333 182.4 23.65C198.967 38.8167 209.817 59.4667 214.95 85.6L183.1 87.7C179.6 69.9667 172.133 55.9667 160.7 45.7C149.267 35.4333 133.167 30.3 112.4 30.3C96.5333 30.3 82.5333 34.3833 70.4 42.55C58.5 50.4833 49.1667 62.0333 42.4 77.2C35.6333 92.1333 32.25 110.1 32.25 131.1C32.25 152.1 35.6333 170.067 42.4 185C49.1667 199.933 58.5 211.367 70.4 219.3C82.5333 227.233 96.5333 231.2 112.4 231.2C134.1 231.2 150.9 225.6 162.8 214.4C174.7 202.967 182.167 187.567 185.2 168.2L217.05 170.3C214.017 188.267 208.067 204.017 199.2 217.55C190.333 231.083 178.55 241.7 163.85 249.4C149.383 256.867 132.233 260.6 112.4 260.6ZM312.809 259.2C295.309 259.2 280.143 255.233 267.309 247.3C254.709 239.367 244.909 228.167 237.909 213.7C231.143 199 227.759 181.85 227.759 162.25C227.759 142.65 231.143 125.617 237.909 111.15C244.909 96.6833 254.593 85.4833 266.959 77.55C279.559 69.3833 294.376 65.3 311.409 65.3C327.509 65.3 341.743 69.15 354.109 76.85C366.476 84.3167 376.043 95.2833 382.809 109.75C389.809 124.217 393.309 141.833 393.309 162.6V171.35H258.559C259.726 191.183 264.976 206.117 274.309 216.15C283.876 226.183 296.709 231.2 312.809 231.2C324.943 231.2 334.859 228.4 342.559 222.8C350.493 216.967 355.976 209.383 359.009 200.05L390.509 202.5C385.609 219.067 376.276 232.717 362.509 243.45C348.976 253.95 332.409 259.2 312.809 259.2ZM258.559 145.45H361.109C359.709 127.483 354.459 114.3 345.359 105.9C336.493 97.5 325.176 93.3 311.409 93.3C297.176 93.3 285.393 97.7333 276.059 106.6C266.959 115.233 261.126 128.183 258.559 145.45ZM455.242 255C444.508 255 435.758 252.2 428.992 246.6C422.225 241 418.842 232.133 418.842 220V6.49999H448.242V217.55C448.242 221.283 449.175 224.2 451.042 226.3C453.142 228.167 456.058 229.1 459.792 229.1H475.892V255H455.242ZM566.552 259.2C549.052 259.2 533.885 255.233 521.052 247.3C508.452 239.367 498.652 228.167 491.652 213.7C484.885 199 481.502 181.85 481.502 162.25C481.502 142.65 484.885 125.617 491.652 111.15C498.652 96.6833 508.335 85.4833 520.702 77.55C533.302 69.3833 548.118 65.3 565.152 65.3C581.252 65.3 595.485 69.15 607.852 76.85C620.218 84.3167 629.785 95.2833 636.552 109.75C643.552 124.217 647.052 141.833 647.052 162.6V171.35H512.302C513.468 191.183 518.718 206.117 528.052 216.15C537.618 226.183 550.452 231.2 566.552 231.2C578.685 231.2 588.602 228.4 596.302 222.8C604.235 216.967 609.718 209.383 612.752 200.05L644.252 202.5C639.352 219.067 630.018 232.717 616.252 243.45C602.718 253.95 586.152 259.2 566.552 259.2ZM512.302 145.45H614.852C613.452 127.483 608.202 114.3 599.102 105.9C590.235 97.5 578.918 93.3 565.152 93.3C550.918 93.3 539.135 97.7333 529.802 106.6C520.702 115.233 514.868 128.183 512.302 145.45ZM738.425 259.2C721.858 259.2 707.742 256.517 696.075 251.15C684.642 245.783 675.658 238.433 669.125 229.1C662.825 219.533 659.208 208.683 658.275 196.55L689.075 194.45C690.942 205.65 695.725 214.633 703.425 221.4C711.125 227.933 722.792 231.2 738.425 231.2C751.025 231.2 761.058 229.217 768.525 225.25C776.225 221.05 780.075 214.4 780.075 205.3C780.075 200.4 778.908 196.317 776.575 193.05C774.242 189.783 769.692 186.983 762.925 184.65C756.158 182.083 746.125 179.633 732.825 177.3C715.092 174.033 701.092 170.067 690.825 165.4C680.792 160.5 673.558 154.55 669.125 147.55C664.925 140.317 662.825 131.8 662.825 122C662.825 105.433 668.892 91.9 681.025 81.4C693.158 70.6667 710.425 65.3 732.825 65.3C747.992 65.3 760.708 68.1 770.975 73.7C781.475 79.0667 789.642 86.3 795.475 95.4C801.542 104.267 805.508 114.067 807.375 124.8L776.575 126.9C775.175 120.367 772.608 114.65 768.875 109.75C765.142 104.617 760.242 100.65 754.175 97.85C748.108 94.8167 740.875 93.3 732.475 93.3C719.175 93.3 709.375 95.8667 703.075 101C696.775 106.133 693.625 112.667 693.625 120.6C693.625 126.667 695.025 131.683 697.825 135.65C700.858 139.383 705.642 142.533 712.175 145.1C718.708 147.433 727.458 149.533 738.425 151.4C757.325 154.667 772.025 158.633 782.525 163.3C793.025 167.967 800.375 173.683 804.575 180.45C808.775 187.217 810.875 195.5 810.875 205.3C810.875 216.733 807.608 226.533 801.075 234.7C794.775 242.633 786.142 248.7 775.175 252.9C764.442 257.1 752.192 259.2 738.425 259.2ZM895.724 255C878.924 255 866.441 251.15 858.274 243.45C850.341 235.75 846.374 223.733 846.374 207.4V26.1H875.774V206.7C875.774 215.1 877.641 220.933 881.374 224.2C885.108 227.467 890.824 229.1 898.524 229.1H925.124V255H895.724ZM819.074 95.4V69.5H925.124V95.4H819.074ZM946.834 255V69.5H976.234V255H946.834ZM946.134 40.45V6.14999H976.934V40.45H946.134ZM1062.92 259.2C1043.78 259.2 1028.5 254.767 1017.07 245.9C1005.87 237.033 1000.27 224.667 1000.27 208.8C1000.27 192.933 1004.93 180.45 1014.27 171.35C1023.6 162.25 1038.42 155.833 1058.72 152.1L1124.52 139.85C1124.52 124.217 1120.78 112.55 1113.32 104.85C1106.08 97.15 1095.12 93.3 1080.42 93.3C1067.58 93.3 1057.43 96.2167 1049.97 102.05C1042.5 107.65 1037.37 115.817 1034.57 126.55L1003.42 124.1C1006.92 106.6 1015.32 92.4833 1028.62 81.75C1042.15 70.7833 1059.42 65.3 1080.42 65.3C1104.22 65.3 1122.42 72.0667 1135.02 85.6C1147.62 98.9 1153.92 117.333 1153.92 140.9V217.55C1153.92 221.75 1154.62 224.783 1156.02 226.65C1157.65 228.283 1160.22 229.1 1163.72 229.1H1171.07V255C1170.13 255.233 1168.62 255.35 1166.52 255.35C1164.42 255.583 1162.2 255.7 1159.87 255.7C1151.47 255.7 1144.58 254.417 1139.22 251.85C1134.08 249.05 1130.35 244.85 1128.02 239.25C1125.68 233.417 1124.52 225.833 1124.52 216.5L1128.02 217.2C1126.38 225.133 1122.42 232.367 1116.12 238.9C1109.82 245.2 1102 250.217 1092.67 253.95C1083.33 257.45 1073.42 259.2 1062.92 259.2ZM1065.72 233.3C1078.08 233.3 1088.58 230.967 1097.22 226.3C1106.08 221.4 1112.85 214.867 1117.52 206.7C1122.18 198.3 1124.52 188.967 1124.52 178.7V165.4L1064.32 176.6C1051.72 178.933 1042.97 182.55 1038.07 187.45C1033.4 192.117 1031.07 198.3 1031.07 206C1031.07 214.633 1034.1 221.4 1040.17 226.3C1046.47 230.967 1054.98 233.3 1065.72 233.3ZM1222.62 255C1211.89 255 1203.14 252.2 1196.37 246.6C1189.6 241 1186.22 232.133 1186.22 220V6.49999H1215.62V217.55C1215.62 221.283 1216.55 224.2 1218.42 226.3C1220.52 228.167 1223.44 229.1 1227.17 229.1H1243.27V255H1222.62Z" fill="#5C5C5C"/>
</svg>
